<svg width="89" height="24" viewBox="0 0 89 24" fill="none" xmlns="http://www.w3.org/2000/svg">
    <path
        d="M0 0C29.37 0 58.74 0 89 0C89 7.92 89 15.84 89 24C59.63 24 30.26 24 0 24C0 16.08 0 8.16 0 0Z"
        fill="black" />
    <path
        d="M53.8867 8.08698C54.5236 8.07588 55.1605 8.06831 55.7975 8.0631C56.0138 8.06092 56.2301 8.05796 56.4464 8.05418C56.7588 8.04886 57.0712 8.04643 57.3837 8.04452C57.479 8.04228 57.5744 8.04003 57.6727 8.03772C58.4592 8.03744 59.1682 8.22189 59.787 8.72625C59.8387 8.79148 59.8903 8.85672 59.9435 8.92394C60.0247 9.02247 60.0247 9.02247 60.1075 9.12298C60.4241 9.5864 60.3629 10.1579 60.3184 10.6957C60.1715 11.2443 59.8194 11.5953 59.3623 11.9131C58.9104 12.1739 58.9104 12.1739 58.5801 12.1739C58.6481 12.2533 58.6481 12.2533 58.7176 12.3343C59.1229 12.8171 59.493 13.3096 59.8458 13.8315C60.6732 15.1423 60.6732 15.1423 61.9697 15.8968C62.0558 15.9048 62.0558 15.9048 62.1436 15.9131C62.1436 15.9705 62.1436 16.0278 62.1436 16.087C61.7779 16.1047 61.4123 16.1155 61.0463 16.125C60.8911 16.1327 60.8911 16.1327 60.7329 16.1405C59.9862 16.1551 59.9862 16.1551 59.7099 15.9713C59.5722 15.8147 59.4676 15.6581 59.3623 15.4783C59.2893 15.3724 59.2161 15.2666 59.1426 15.161C59.0725 15.0532 59.0027 14.9452 58.9332 14.837C58.6051 14.3362 58.2668 13.853 57.8848 13.3913C57.8329 13.3278 57.781 13.2642 57.7276 13.1987C57.3569 12.7578 57.072 12.4524 56.4802 12.3856C56.3701 12.3731 56.26 12.3607 56.1465 12.3478C56.1568 12.7765 56.1676 13.2052 56.1788 13.6338C56.1826 13.7797 56.1862 13.9255 56.1897 14.0713C56.1947 14.2809 56.2003 14.4905 56.2059 14.7001C56.2074 14.7653 56.2088 14.8305 56.2103 14.8977C56.2181 15.1702 56.2336 15.3919 56.3203 15.6522C56.6502 15.8172 57.0085 15.9026 57.3633 16C57.3633 16.0287 57.3633 16.0574 57.3633 16.087C56.1873 16.087 55.0114 16.087 53.7998 16.087C53.7998 16.0296 53.7998 15.9722 53.7998 15.9131C53.8543 15.8973 53.9087 15.8815 53.9648 15.8652C54.0358 15.8433 54.1069 15.8215 54.1801 15.7989C54.2506 15.7778 54.3212 15.7566 54.3939 15.7347C54.6109 15.6597 54.6109 15.6597 54.7559 15.3913C54.8494 15.0479 54.8543 14.718 54.8554 14.3633C54.8557 14.3054 54.856 14.2475 54.8563 14.1879C54.8571 13.9975 54.8573 13.8072 54.8574 13.6169C54.8577 13.484 54.8579 13.3512 54.8582 13.2183C54.8588 12.9402 54.8589 12.6622 54.8589 12.3842C54.8589 12.0283 54.8601 11.6725 54.8616 11.3166C54.8625 11.0424 54.8627 10.7682 54.8627 10.494C54.8628 10.3628 54.8631 10.2316 54.8638 10.1004C54.8647 9.91685 54.8644 9.73334 54.8639 9.54979C54.8641 9.39332 54.8641 9.39332 54.8643 9.23369C54.8428 8.95713 54.7962 8.76711 54.6689 8.52176C54.4831 8.39618 54.4831 8.39618 54.267 8.32068C54.1959 8.29232 54.1249 8.26396 54.0517 8.23474C53.9973 8.21467 53.9428 8.19461 53.8867 8.17394C53.8867 8.14524 53.8867 8.11654 53.8867 8.08698Z"
        fill="#F8F8F8" />
    <path
        d="M30.4199 7.91309C30.4773 7.91309 30.5346 7.91309 30.5937 7.91309C30.6264 8.00024 30.6591 8.08739 30.6927 8.17718C30.7147 8.23572 30.7366 8.29426 30.7592 8.35457C30.8095 8.48877 30.8598 8.62298 30.9101 8.75719C31.0534 9.1396 31.1968 9.52196 31.3405 9.90425C31.6189 10.6457 31.8966 11.3873 32.1701 12.1306C32.2862 12.4462 32.403 12.7617 32.5198 13.0771C32.5753 13.2276 32.6305 13.3781 32.6855 13.5288C32.7628 13.7405 32.841 13.9518 32.9194 14.1631C32.9526 14.2553 32.9526 14.2553 32.9865 14.3493C33.1873 14.8854 33.4558 15.5457 33.9834 15.8261C34.2137 15.8882 34.2137 15.8882 34.418 15.9131C34.418 15.9705 34.418 16.0279 34.418 16.087C33.3567 16.087 32.2955 16.087 31.2021 16.087C31.4162 15.8728 31.6112 15.8263 31.8975 15.7392C31.8098 14.954 31.584 14.2563 31.3101 13.5211C31.2021 13.2174 31.2021 13.2174 31.2021 13.0435C30.1983 13.0435 29.1944 13.0435 28.1602 13.0435C28.0741 13.3018 27.9881 13.56 27.8994 13.8261C27.8226 14.0168 27.7449 14.2071 27.6658 14.3968C27.4926 14.844 27.393 15.1757 27.4648 15.6522C27.7419 15.837 27.9225 15.8698 28.2471 15.9131C28.2471 15.9705 28.2471 16.0279 28.2471 16.087C27.4727 16.087 26.6983 16.087 25.9004 16.087C25.9004 16.0296 25.9004 15.9722 25.9004 15.9131C25.9548 15.8993 26.0093 15.8855 26.0654 15.8713C26.1719 15.8409 26.1719 15.8409 26.2806 15.8098C26.3865 15.7811 26.3865 15.7811 26.4945 15.7517C26.7527 15.6151 26.766 15.4928 26.8564 15.2174C26.9318 15.0602 27.0072 14.9031 27.0836 14.7464C27.6709 13.5381 28.1889 12.2988 28.7127 11.0621C28.8377 10.767 28.9635 10.4725 29.092 10.1789C29.1156 10.1246 29.1393 10.0703 29.1636 10.0144C29.2272 9.86868 29.2912 9.72313 29.3552 9.57759C29.4717 9.299 29.4717 9.299 29.5549 8.97711C29.6475 8.66223 29.7356 8.56205 29.9908 8.36417C30.2459 8.17186 30.2459 8.17186 30.4199 7.91309Z"
        fill="#F8F8F8" />
    <path
        d="M69.792 8.08704C71.7997 8.08704 73.8074 8.08704 75.876 8.08704C76.3649 9.0653 76.3649 9.0653 76.5115 9.48921C76.5399 9.57014 76.5682 9.65107 76.5974 9.73445C76.6275 9.8229 76.6275 9.8229 76.6582 9.91312C76.3312 9.77879 76.1382 9.5763 75.8977 9.32073C75.2697 8.68226 74.7961 8.36546 73.8932 8.34139C73.6143 8.33936 73.3356 8.34033 73.0567 8.34247C72.5593 8.34516 72.5593 8.34516 72.0518 8.34791C72.0231 9.52443 71.9944 10.7009 71.9648 11.9131C73.1895 11.8768 73.1895 11.8768 74.2192 11.337C74.4309 10.9904 74.5526 10.6511 74.6592 10.2609C74.7165 10.2609 74.7739 10.2609 74.833 10.2609C74.833 11.4088 74.833 12.5566 74.833 13.7392C74.7756 13.7392 74.7183 13.7392 74.6592 13.7392C74.6371 13.6878 74.615 13.6363 74.5923 13.5833C74.5009 13.3734 74.4065 13.1649 74.3115 12.9566C74.2757 12.8759 74.2398 12.7952 74.2029 12.712C73.9309 12.3718 73.6136 12.2094 73.1872 12.1509C72.7803 12.1124 72.3733 12.097 71.9648 12.087C71.9752 12.4442 71.986 12.8014 71.9972 13.1586C72.0009 13.2798 72.0046 13.401 72.0081 13.5221C71.9485 14.6342 71.9485 14.6342 72.2584 15.6253C72.7675 16.0365 73.9496 15.8745 74.5723 15.8262C75.3596 15.6762 75.9455 15.2778 76.3954 14.6176C76.5019 14.4471 76.6058 14.275 76.7064 14.101C76.7479 14.039 76.7893 13.977 76.832 13.9131C76.8894 13.9131 76.9468 13.9131 77.0059 13.9131C76.8896 14.6628 76.6949 15.3499 76.4844 16.087C74.2185 16.087 71.9527 16.087 69.6182 16.087C69.7051 15.9131 69.7051 15.9131 69.8596 15.8482C69.9844 15.8083 70.1094 15.7684 70.2344 15.7287C70.4309 15.6558 70.4309 15.6558 70.5742 15.3914C70.6702 15.0405 70.6737 14.7005 70.6765 14.338C70.6774 14.2472 70.6774 14.2472 70.6782 14.1545C70.68 13.9553 70.681 13.756 70.6818 13.5568C70.6822 13.4886 70.6826 13.4203 70.6829 13.35C70.6847 12.9893 70.686 12.6287 70.6868 12.268C70.6878 11.8955 70.6907 11.5231 70.6942 11.1507C70.6965 10.864 70.6972 10.5774 70.6975 10.2907C70.6979 10.1534 70.6989 10.016 70.7005 9.87871C70.7027 9.68678 70.7026 9.49498 70.702 9.30305C70.7025 9.19391 70.703 9.08477 70.7035 8.97232C70.6532 8.64379 70.5753 8.54573 70.3135 8.34791C70.0411 8.23766 70.0411 8.23766 69.792 8.17399C69.792 8.1453 69.792 8.1166 69.792 8.08704Z"
        fill="#F9F9F9" />
    <path
        d="M12.0811 8.08704C14.1461 8.08704 16.2112 8.08704 18.3389 8.08704C19.0342 9.82617 19.0342 9.82617 19.0342 10.0001C18.7429 9.90293 18.685 9.83012 18.4964 9.59791C18.2823 9.3472 18.0651 9.10976 17.8228 8.88595C17.7718 8.83876 17.7209 8.79157 17.6683 8.74295C17.0063 8.29574 16.3324 8.30256 15.5576 8.28812C15.1848 8.27916 14.8119 8.27019 14.4277 8.26095C14.3991 9.46617 14.3704 10.6714 14.3408 11.9131C15.6597 11.8798 15.6597 11.8798 16.7364 11.2392C16.8807 10.9128 16.9629 10.6103 17.0352 10.2609C17.0925 10.2609 17.1499 10.2609 17.209 10.2609C17.209 11.4375 17.209 12.614 17.209 13.8262C17.1516 13.8262 17.0943 13.8262 17.0352 13.8262C17.0098 13.7559 16.9845 13.6856 16.9584 13.6132C16.7434 13.0524 16.5906 12.6745 16.0791 12.3479C16.0313 12.317 15.9834 12.286 15.9341 12.2542C15.635 12.1358 15.3321 12.1331 15.0144 12.1196C14.9496 12.1163 14.8849 12.1129 14.8182 12.1095C14.6591 12.1013 14.5 12.0941 14.3408 12.087C14.3468 12.5233 14.3545 12.9596 14.3636 13.3958C14.3665 13.5441 14.369 13.6924 14.3709 13.8406C14.3739 14.0544 14.3784 14.268 14.3833 14.4817C14.3838 14.5475 14.3844 14.6133 14.3849 14.6811C14.3963 15.0928 14.4616 15.3827 14.6885 15.7392C14.9009 15.8561 14.9009 15.8561 15.1393 15.9023C15.2177 15.9218 15.296 15.9413 15.3767 15.9614C15.4364 15.9741 15.4961 15.9869 15.5576 16.0001C15.5576 16.0288 15.5576 16.0575 15.5576 16.087C14.3817 16.087 13.2057 16.087 11.9941 16.087C11.9941 16.0296 11.9941 15.9723 11.9941 15.9131C12.0486 15.8973 12.103 15.8815 12.1591 15.8652C12.2302 15.8434 12.3012 15.8215 12.3744 15.799C12.445 15.7778 12.5156 15.7566 12.5883 15.7348C12.8052 15.6598 12.8052 15.6598 12.9502 15.3914C13.0459 15.0424 13.0481 14.7066 13.0484 14.346C13.0485 14.2863 13.0487 14.2266 13.0488 14.165C13.0492 13.9686 13.0489 13.7722 13.0487 13.5758C13.0487 13.4389 13.0488 13.3019 13.0489 13.1649C13.049 12.8783 13.0488 12.5917 13.0484 12.3051C13.0479 11.938 13.0482 11.5708 13.0488 11.2037C13.0491 10.921 13.049 10.6384 13.0487 10.3557C13.0487 10.2203 13.0488 10.0849 13.049 9.94956C13.0492 9.76038 13.0488 9.5712 13.0484 9.38202C13.0483 9.27443 13.0482 9.16683 13.0481 9.05598C13.0391 8.83098 13.0171 8.64828 12.9502 8.43486C12.8947 8.42433 12.8393 8.41379 12.7821 8.40293C12.7103 8.38836 12.6385 8.37379 12.5645 8.35878C12.4929 8.34465 12.4213 8.33053 12.3476 8.31598C12.2883 8.29782 12.229 8.27966 12.168 8.26095C12.1393 8.20356 12.1106 8.14617 12.0811 8.08704Z"
        fill="#FDFDFD" />
    <path
        d="M42.0664 8.08704C43.1563 8.08704 44.2462 8.08704 45.3691 8.08704C45.1953 8.26095 45.1953 8.26095 44.8911 8.38595C44.57 8.4969 44.57 8.4969 44.4131 8.78269C44.3958 8.99928 44.3885 9.20618 44.3892 9.4228C44.3888 9.48773 44.3883 9.55265 44.3879 9.61955C44.3867 9.83426 44.3867 10.049 44.3869 10.2637C44.3866 10.4128 44.3862 10.5619 44.3858 10.711C44.3852 11.0236 44.3852 11.3362 44.3856 11.6487C44.3862 12.0496 44.3847 12.4505 44.3827 12.8514C44.3814 13.1594 44.3813 13.4673 44.3816 13.7752C44.3815 13.9231 44.3811 14.0709 44.3802 14.2187C44.3791 14.4252 44.3797 14.6317 44.3807 14.8382C44.3801 14.8995 44.3794 14.9607 44.3787 15.0239C44.3814 15.2743 44.3836 15.4381 44.5344 15.6436C44.6971 15.7551 44.8514 15.8217 45.0378 15.8859C45.1 15.9078 45.1621 15.9297 45.2262 15.9522C45.2734 15.968 45.3205 15.9838 45.3691 16.0001C45.3691 16.0288 45.3691 16.0575 45.3691 16.087C44.2506 16.087 43.132 16.087 41.9795 16.087C41.9795 16.0296 41.9795 15.9723 41.9795 15.9131C42.0339 15.8973 42.0884 15.8815 42.1445 15.8652C42.2155 15.8434 42.2866 15.8215 42.3597 15.799C42.4303 15.7778 42.5009 15.7566 42.5736 15.7348C42.7906 15.6598 42.7906 15.6598 42.9355 15.3914C43.028 15.0508 43.0339 14.7244 43.0351 14.3727C43.0354 14.3158 43.0357 14.2589 43.036 14.2003C43.0368 14.0132 43.037 13.8261 43.0371 13.639C43.0373 13.5083 43.0376 13.3776 43.0379 13.2469C43.0385 12.9733 43.0386 12.6997 43.0386 12.4261C43.0386 12.0763 43.0397 11.7266 43.0412 11.3768C43.0422 11.1069 43.0424 10.8371 43.0423 10.5673C43.0424 10.4384 43.0428 10.3094 43.0435 10.1805C43.0444 9.99989 43.0441 9.8193 43.0436 9.63869C43.0437 9.53611 43.0438 9.43354 43.0439 9.32786C43.0215 9.03023 42.9641 8.79658 42.8486 8.52182C42.6645 8.38667 42.6645 8.38667 42.4467 8.3153C42.3756 8.28772 42.3046 8.26015 42.2314 8.23174C42.177 8.21268 42.1225 8.19363 42.0664 8.17399C42.0664 8.1453 42.0664 8.1166 42.0664 8.08704Z"
        fill="#F9F9F9" />
    <path
        d="M53.8867 8.08704C54.9766 8.08704 56.0665 8.08704 57.1895 8.08704C57.1895 8.11573 57.1895 8.14443 57.1895 8.17399C56.874 8.20269 56.5585 8.23138 56.2334 8.26095C56.2047 9.55225 56.176 10.8436 56.1465 12.174C56.2899 12.174 56.4333 12.174 56.5811 12.174C56.5811 12.2027 56.5811 12.2314 56.5811 12.2609C56.4376 12.2609 56.2942 12.2609 56.1465 12.2609C56.1568 12.702 56.1676 13.1431 56.1788 13.5841C56.1826 13.7341 56.1862 13.8842 56.1897 14.0342C56.1947 14.2499 56.2003 14.4655 56.2059 14.6811C56.2074 14.7483 56.2088 14.8154 56.2103 14.8845C56.218 15.1611 56.2323 15.3881 56.3203 15.6523C56.6502 15.8173 57.0085 15.9026 57.3633 16.0001C57.3633 16.0288 57.3633 16.0575 57.3633 16.087C56.1873 16.087 55.0114 16.087 53.7998 16.087C53.7998 16.0296 53.7998 15.9723 53.7998 15.9131C53.8543 15.8973 53.9087 15.8815 53.9648 15.8652C54.0358 15.8434 54.1069 15.8215 54.1801 15.799C54.2506 15.7778 54.3212 15.7566 54.3939 15.7348C54.6109 15.6598 54.6109 15.6598 54.7559 15.3914C54.8494 15.0479 54.8543 14.7181 54.8554 14.3634C54.8557 14.3055 54.856 14.2476 54.8563 14.1879C54.8571 13.9976 54.8573 13.8073 54.8574 13.6169C54.8577 13.4841 54.8579 13.3512 54.8582 13.2184C54.8588 12.9403 54.8589 12.6623 54.8589 12.3842C54.8589 12.0284 54.8601 11.6725 54.8616 11.3167C54.8625 11.0425 54.8627 10.7682 54.8627 10.494C54.8628 10.3628 54.8631 10.2316 54.8638 10.1005C54.8647 9.91691 54.8644 9.73339 54.8639 9.54984C54.8641 9.39337 54.8641 9.39337 54.8643 9.23374C54.8428 8.95719 54.7962 8.76717 54.6689 8.52182C54.4831 8.39624 54.4831 8.39624 54.267 8.32073C54.1959 8.29237 54.1249 8.26401 54.0517 8.23479C53.9973 8.21473 53.9428 8.19467 53.8867 8.17399C53.8867 8.1453 53.8867 8.1166 53.8867 8.08704Z"
        fill="#FAFAFA" />
    <path
        d="M56.1465 8.26086C57.9449 8.26086 57.9449 8.26086 58.5044 8.78057C59.0029 9.33479 59.0532 9.71757 59.0388 10.4596C58.9983 11.0017 58.818 11.2247 58.4551 11.625C57.7826 12.1394 56.9567 12.1739 56.1465 12.1739C56.1465 10.8826 56.1465 9.5913 56.1465 8.26086Z"
        fill="#020202" />
    <path
        d="M29.6377 9.47827C29.6951 9.47827 29.7524 9.47827 29.8115 9.47827C29.9854 9.9067 30.1587 10.3354 30.3314 10.7643C30.3903 10.9102 30.4493 11.056 30.5084 11.2018C30.5934 11.4112 30.6778 11.6208 30.7621 11.8305C30.7888 11.8957 30.8154 11.961 30.8428 12.0282C30.9484 12.2922 31.0283 12.4955 31.0283 12.7826C30.1392 12.7826 29.2501 12.7826 28.334 12.7826C28.6276 11.8035 28.6276 11.8035 28.8263 11.3176C28.8682 11.2149 28.9101 11.1121 28.9532 11.0063C28.9963 10.902 29.0393 10.7977 29.0836 10.6902C29.1278 10.5818 29.1719 10.4734 29.216 10.365C29.5388 9.57723 29.5388 9.57723 29.6377 9.47827Z"
        fill="#050505" />
    <path
        d="M17.0352 10.2609C17.0925 10.2609 17.1499 10.2609 17.209 10.2609C17.209 11.4374 17.209 12.6139 17.209 13.8261C17.1516 13.8261 17.0943 13.8261 17.0352 13.8261C17.0098 13.7558 16.9845 13.6855 16.9584 13.6131C16.7434 13.0523 16.5906 12.6745 16.0791 12.3478C16.0313 12.3169 15.9834 12.2859 15.9341 12.2541C15.635 12.1358 15.3321 12.133 15.0144 12.1196C14.9496 12.1162 14.8849 12.1128 14.8182 12.1094C14.6591 12.1012 14.5 12.094 14.3408 12.087C14.3408 12.0583 14.3408 12.0296 14.3408 12C14.4176 11.9915 14.4943 11.983 14.5734 11.9742C15.7608 11.8523 15.7608 11.8523 16.7364 11.2391C16.8807 10.9127 16.9629 10.6102 17.0352 10.2609Z"
        fill="#F8F8F8" />
    <path
        d="M75.876 8.08703C76.1119 8.5469 76.3422 8.99972 76.5115 9.4892C76.5541 9.6106 76.5541 9.6106 76.5974 9.73445C76.6275 9.82289 76.6275 9.82289 76.6582 9.91311C76.3312 9.77879 76.1382 9.57629 75.8977 9.32072C75.0432 8.45196 74.3782 8.34867 73.1871 8.29898C73.1028 8.29523 73.0185 8.29147 72.9316 8.2876C72.7252 8.27845 72.5189 8.26957 72.3125 8.26094C72.3125 8.23224 72.3125 8.20355 72.3125 8.17398C73.5009 8.08352 74.6845 8.07724 75.876 8.08703Z"
        fill="#EEEEEE" />
    <path
        d="M18.3389 8.08703C18.4552 8.37306 18.5709 8.65937 18.6865 8.94572C18.7197 9.02721 18.7528 9.1087 18.787 9.19267C18.8341 9.30952 18.8341 9.30952 18.8821 9.42874C18.9112 9.50069 18.9403 9.57264 18.9704 9.64677C19.0342 9.82616 19.0342 9.82616 19.0342 10.0001C18.7429 9.90292 18.685 9.83011 18.4964 9.5979C18.2823 9.34719 18.0651 9.10975 17.8228 8.88594C17.7463 8.81515 17.7463 8.81515 17.6683 8.74294C17.0563 8.32945 16.4486 8.30383 15.7314 8.28811C15.5931 8.28366 15.5931 8.28366 15.452 8.27911C15.2265 8.272 15.001 8.26597 14.7754 8.26094C14.7754 8.23224 14.7754 8.20355 14.7754 8.17398C15.9638 8.08352 17.1474 8.07724 18.3389 8.08703Z"
        fill="#EDEDED" />
    <path
        d="M27.7256 13.3044C27.8116 13.3044 27.8977 13.3044 27.9863 13.3044C27.9353 13.6953 27.8305 14.0185 27.6767 14.3805C27.4976 14.8349 27.3917 15.1672 27.4648 15.6523C27.7419 15.8371 27.9225 15.8698 28.2471 15.9131C28.2471 15.9705 28.2471 16.0279 28.2471 16.0871C27.4727 16.0871 26.6983 16.0871 25.9004 16.0871C25.9004 16.0297 25.9004 15.9723 25.9004 15.9131C25.9548 15.8994 26.0093 15.8856 26.0654 15.8714C26.1364 15.8511 26.2075 15.8308 26.2806 15.8099C26.3512 15.7907 26.4218 15.7715 26.4945 15.7518C26.7552 15.6139 26.7632 15.4973 26.8564 15.2175C26.9167 15.0853 26.9785 14.9538 27.0415 14.8228C27.093 14.7148 27.093 14.7148 27.1455 14.6047C27.2175 14.4546 27.2895 14.3044 27.3615 14.1543C27.3957 14.0826 27.4299 14.0108 27.4652 13.9369C27.4964 13.8718 27.5276 13.8067 27.5598 13.7397C27.6475 13.5538 27.6475 13.5538 27.7256 13.3044Z"
        fill="#EFEFEF" />
    <path
        d="M29.4645 9.30444C29.5793 9.33314 29.6941 9.36183 29.8124 9.3914C29.7744 9.45114 29.7365 9.51088 29.6974 9.57242C29.5409 9.84454 29.4224 10.1174 29.3039 10.408C29.2703 10.4898 29.2703 10.4898 29.2361 10.5733C29.1652 10.7462 29.0947 10.9193 29.0243 11.0925C28.9536 11.2659 28.8827 11.4393 28.8117 11.6126C28.7474 11.7696 28.6834 11.9267 28.6194 12.0838C28.5827 12.171 28.5459 12.2581 28.508 12.3479C28.4798 12.4153 28.4517 12.4826 28.4226 12.552C28.3341 12.6957 28.3341 12.6957 28.0732 12.7827C28.133 12.3709 28.2889 12.0179 28.454 11.6397C28.4828 11.5728 28.5117 11.5058 28.5414 11.4369C28.6331 11.2241 28.7255 11.0115 28.8178 10.799C28.8803 10.6544 28.9427 10.5097 29.0051 10.3651C29.1578 10.0113 29.311 9.65783 29.4645 9.30444Z"
        fill="#EAEAEA" />
    <path
        d="M17.0352 10.2609C17.0926 10.2609 17.15 10.2609 17.2091 10.2609C17.2091 11.4374 17.2091 12.6139 17.2091 13.8261C17.1804 13.8261 17.1517 13.8261 17.1222 13.8261C17.0935 12.8791 17.0648 11.9322 17.0352 10.9565C17.0065 10.9565 16.9778 10.9565 16.9482 10.9565C16.9769 10.727 17.0056 10.4974 17.0352 10.2609Z"
        fill="#D6D6D6" />
    <path
        d="M74.6592 10.2609C74.7166 10.2609 74.774 10.2609 74.8331 10.2609C74.8331 11.4087 74.8331 12.5565 74.8331 13.7391C74.7757 13.7104 74.7184 13.6817 74.6592 13.6522C74.6597 13.5697 74.6601 13.4872 74.6606 13.4023C74.6621 13.0956 74.6632 12.789 74.664 12.4824C74.6644 12.3498 74.665 12.2172 74.6658 12.0847C74.6668 11.8938 74.6673 11.703 74.6677 11.5122C74.6682 11.3975 74.6686 11.2827 74.6691 11.1645C74.67 10.8833 74.67 10.8833 74.6098 10.6718C74.5723 10.5217 74.5723 10.5217 74.6592 10.2609Z"
        fill="#EAEAEA" />
    <path
        d="M29.4642 9.30444C29.5789 9.33314 29.6937 9.36183 29.812 9.3914C29.7738 9.45182 29.7355 9.51224 29.6962 9.57448C29.5458 9.83535 29.4308 10.0963 29.3174 10.3751C29.2794 10.468 29.2414 10.5609 29.2023 10.6567C29.1597 10.7621 29.1597 10.7621 29.1163 10.8697C29.0303 10.8697 28.9442 10.8697 28.8555 10.8697C29.0238 10.3301 29.2256 9.81677 29.4642 9.30444Z"
        fill="#E2E2E2" />
    <path
        d="M28.5079 11.5653C28.594 11.5653 28.6801 11.5653 28.7688 11.5653C28.7114 11.7375 28.654 11.9097 28.5949 12.087C28.5088 12.087 28.4227 12.087 28.334 12.087C28.3914 11.9149 28.4488 11.7427 28.5079 11.5653Z"
        fill="#E3E3E3" />
    <path
        d="M29.464 9.30444C29.5787 9.33314 29.6935 9.36183 29.8118 9.3914C29.7004 9.53988 29.5842 9.68477 29.464 9.82618C29.4066 9.82618 29.3492 9.82618 29.29 9.82618C29.3474 9.65401 29.4048 9.48183 29.464 9.30444Z"
        fill="#D8D8D8" />
</svg>